<?xml version="1.0" standalone="no"?>
<!DOCTYPE svg PUBLIC "-//W3C//DTD SVG 20010904//EN"
 "http://www.w3.org/TR/2001/REC-SVG-20010904/DTD/svg10.dtd">
<svg version="1.0" xmlns="http://www.w3.org/2000/svg"
 width="512.000000pt" height="512.000000pt" viewBox="0 0 512.000000 512.000000"
 preserveAspectRatio="xMidYMid meet">
<metadata>
Created by potrace 1.16, written by Peter Selinger 2001-2019
</metadata>
<g transform="translate(0.000000,512.000000) scale(0.100000,-0.100000)"
fill="#000000" stroke="none">
<path d="M1 4003 c1 -615 5 -1100 9 -1078 12 58 29 97 39 91 5 -4 7 2 4 13 -5
20 23 81 56 121 55 67 87 100 95 100 5 0 1 -10 -10 -22 l-19 -23 23 19 c12 11
20 21 17 24 -11 11 18 44 36 39 10 -3 18 -2 17 2 -2 21 7 31 53 55 28 16 59
26 69 23 11 -3 18 -1 17 5 -3 14 69 36 158 47 108 13 274 -7 259 -31 -4 -6 2
-7 16 -3 14 4 20 3 17 -2 -4 -6 3 -8 16 -6 25 5 98 -32 172 -86 48 -35 118
-51 108 -25 -4 12 233 136 332 174 33 13 74 29 90 35 64 27 104 36 131 30 19
-4 24 -3 16 2 -13 10 5 17 123 49 95 25 157 34 195 29 24 -4 29 -3 16 3 -23
10 70 27 238 42 60 5 111 12 114 14 2 3 8 40 13 83 14 107 35 205 54 250 58
132 70 153 83 148 10 -4 12 0 8 11 -6 17 26 77 65 119 10 11 37 41 60 68 23
26 48 47 55 47 7 0 18 8 23 18 15 27 88 75 105 69 10 -4 13 -1 10 7 -7 19 137
90 166 81 15 -5 20 -3 16 3 -9 16 1 20 130 48 104 23 134 25 239 21 132 -6
240 -26 209 -38 -17 -7 -17 -8 -2 -8 10 -1 24 13 33 33 35 74 153 161 274 203
97 33 243 32 345 -2 91 -30 143 -60 151 -85 3 -11 12 -17 19 -14 18 7 96 -82
134 -153 17 -33 39 -93 47 -132 23 -110 18 -275 -7 -239 -6 9 -7 6 -3 -9 15
-56 -66 -220 -138 -278 -18 -14 -37 -29 -43 -34 -46 -37 -97 -63 -113 -58 -12
3 -19 0 -18 -6 3 -19 -83 -35 -173 -32 -74 2 -78 2 -30 -5 48 -7 45 -7 -25 -4
-90 3 -181 24 -178 41 1 6 -6 9 -16 6 -38 -10 -143 68 -220 163 -13 16 -38 58
-55 94 -27 58 -30 75 -30 160 1 79 0 86 -6 40 l-7 -55 -1 47 c-1 26 -7 50 -13
54 -7 4 -8 9 -1 13 5 3 -47 7 -117 9 -95 3 -144 -1 -191 -13 -35 -9 -72 -14
-81 -12 -11 3 -17 0 -16 -7 1 -6 -10 -11 -25 -11 -14 1 -24 -3 -22 -7 7 -10
-35 -30 -51 -24 -9 3 -12 0 -9 -9 6 -14 -29 -30 -46 -20 -5 3 -8 0 -6 -7 3 -7
-30 -44 -73 -83 -83 -75 -146 -168 -183 -268 -15 -41 -24 -54 -30 -45 -7 9 -8
7 -4 -7 3 -11 2 -52 -3 -90 -5 -39 -6 -73 -2 -77 4 -5 56 -12 116 -18 160 -15
263 -32 239 -40 -11 -4 5 -7 36 -6 69 1 176 -23 158 -36 -9 -7 -5 -8 12 -4 36
7 76 -4 58 -16 -9 -6 -6 -7 9 -3 31 8 79 -5 61 -17 -9 -6 -3 -7 17 -3 34 6
141 -27 138 -43 -1 -5 6 -8 16 -5 23 6 94 -24 87 -36 -3 -5 3 -7 13 -4 24 6
304 -135 298 -151 -10 -26 60 -10 108 25 74 54 147 91 172 86 12 -2 20 0 17 5
-3 5 7 6 23 3 20 -5 24 -4 14 4 -18 12 1 17 106 30 110 14 312 -18 306 -47 -1
-6 6 -8 16 -5 37 9 191 -92 177 -116 -3 -5 4 -17 17 -27 l22 -19 -19 23 c-11
12 -15 22 -10 22 8 0 40 -33 95 -100 33 -40 61 -101 56 -121 -3 -11 -1 -17 4
-13 10 6 27 -33 39 -91 4 -22 8 463 9 1078 l1 1117 -2560 0 -2560 0 1 -1117z"/>
<path d="M4033 4537 c8 -5 4 -7 -10 -4 -13 3 -20 0 -17 -7 2 -6 -12 -21 -32
-34 -20 -13 -49 -45 -66 -72 -17 -27 -33 -48 -37 -46 -5 4 -4 -52 2 -166 1
-14 4 -26 7 -25 8 1 135 -127 133 -134 -1 -4 8 -5 20 -2 18 4 19 3 7 -7 -13
-9 -12 -10 5 -6 11 3 57 7 102 8 48 2 81 7 80 13 -1 5 8 10 20 9 12 0 20 3 17
7 -7 12 57 81 71 76 6 -3 11 4 11 17 -1 11 4 20 10 19 7 -1 10 6 7 20 -3 14
-2 18 4 10 5 -7 7 21 5 65 -5 107 -45 180 -120 224 -30 17 -49 33 -44 37 6 3
-34 6 -88 6 -56 0 -93 -4 -87 -8z"/>
<path d="M2375 3349 c-49 -5 -117 -6 -150 -4 -36 3 -50 1 -35 -3 19 -6 6 -11
-58 -20 -45 -7 -93 -10 -105 -7 -15 4 -18 3 -9 -3 18 -12 -49 -26 -81 -17 -18
5 -19 4 -7 -5 12 -9 8 -10 -20 -6 -27 5 -31 3 -20 -5 11 -8 7 -9 -20 -5 -20 3
-29 2 -22 -2 9 -6 -1 -13 -30 -21 -24 -8 -56 -17 -71 -22 -15 -4 -35 -5 -44
-2 -12 5 -14 3 -8 -7 6 -10 3 -12 -13 -8 -12 4 -19 2 -16 -3 3 -5 -3 -12 -13
-15 -10 -3 -28 -11 -40 -16 -12 -6 -29 -8 -38 -4 -9 3 -13 2 -10 -4 9 -14 -33
-32 -57 -24 -15 4 -18 3 -13 -7 6 -9 3 -11 -9 -6 -10 4 -15 3 -11 -3 8 -12
-33 -33 -51 -26 -10 4 -12 2 -8 -6 5 -7 2 -9 -9 -5 -10 4 -14 2 -12 -6 5 -15
-142 -100 -160 -93 -10 3 -12 0 -8 -11 5 -13 2 -15 -15 -11 -12 4 -20 2 -17
-2 11 -18 -44 -56 -76 -52 -4 1 -6 -6 -5 -16 1 -11 -6 -17 -21 -16 -12 0 -20
-2 -18 -6 8 -13 -41 -60 -65 -63 -14 -2 -23 -7 -22 -11 6 -12 -50 -66 -61 -59
-6 3 -7 1 -4 -4 4 -6 0 -16 -8 -23 -8 -7 -15 -19 -15 -26 0 -7 -11 -21 -25
-30 -14 -9 -25 -23 -25 -30 0 -8 -4 -14 -9 -14 -5 0 -17 -15 -28 -33 -62 -110
-79 -136 -90 -132 -8 2 -10 -2 -6 -12 4 -11 2 -14 -5 -9 -8 5 -10 1 -5 -10 4
-12 3 -15 -5 -10 -8 5 -10 1 -5 -10 4 -10 2 -15 -3 -11 -5 3 -10 -7 -9 -21 0
-15 -5 -26 -11 -25 -7 1 -10 -5 -7 -15 5 -22 -14 -75 -26 -68 -4 3 -6 -7 -4
-22 4 -21 2 -24 -6 -12 -8 11 -10 7 -5 -20 5 -28 3 -32 -6 -20 -10 12 -11 10
-6 -10 3 -14 2 -50 -1 -80 -6 -49 -8 -52 -14 -25 -8 35 -1 -92 11 -216 5 -48
6 -97 3 -110 -4 -20 -3 -21 7 -9 9 12 11 8 6 -20 -4 -22 -3 -30 3 -21 12 19
45 -81 36 -111 -5 -18 -4 -19 4 -8 9 12 11 12 17 -3 3 -9 7 -28 8 -41 0 -13 4
-22 8 -20 4 3 14 -9 23 -25 17 -35 19 -45 5 -36 -5 3 -7 0 -4 -9 3 -8 11 -13
18 -10 15 6 49 -53 42 -72 -3 -8 -2 -13 3 -9 9 5 17 -2 49 -40 8 -9 11 -23 8
-31 -3 -9 -1 -12 4 -9 12 7 70 -47 70 -65 0 -6 -5 -8 -12 -4 -7 4 -8 3 -4 -5
4 -6 11 -9 16 -6 13 8 82 -64 74 -77 -4 -6 -3 -8 3 -5 6 4 16 0 23 -8 7 -8 18
-15 26 -15 16 0 45 -40 38 -52 -3 -4 2 -5 10 -2 15 6 32 -5 64 -38 9 -10 20
-18 25 -18 9 0 99 -59 107 -70 3 -4 15 -11 28 -15 15 -4 21 -12 18 -21 -5 -13
5 -18 31 -15 20 3 134 -59 128 -69 -4 -6 1 -7 11 -3 11 4 15 3 11 -4 -5 -7 0
-9 12 -6 21 5 64 -14 57 -25 -2 -4 8 -8 22 -7 17 0 26 -5 24 -13 -1 -8 2 -11
8 -7 16 10 93 -17 78 -27 -9 -6 -5 -7 10 -3 30 9 100 -14 81 -26 -9 -6 -1 -7
21 -3 28 4 32 3 20 -6 -12 -9 -11 -10 8 -5 31 9 167 -26 149 -38 -8 -6 -3 -7
13 -3 37 9 192 -16 160 -25 -14 -4 9 -6 50 -4 48 3 62 1 40 -3 -19 -4 111 -8
290 -8 179 0 312 4 295 8 -19 4 -3 6 40 3 39 -2 59 0 45 4 -19 5 -6 10 55 19
44 6 91 9 105 6 16 -4 21 -3 13 3 -18 12 118 47 149 38 19 -5 20 -4 8 5 -12 9
-8 10 20 6 23 -4 30 -3 21 3 -18 12 58 34 85 25 14 -4 15 -3 6 4 -11 7 -8 11
13 16 14 4 31 4 37 0 7 -5 8 -2 3 6 -6 10 -3 12 13 8 13 -4 20 -2 19 6 -1 6
10 11 25 11 14 -1 24 3 22 7 -7 11 36 30 57 25 12 -3 17 -1 12 6 -4 7 0 8 11
4 10 -4 15 -3 11 3 -3 5 17 21 45 35 69 35 103 47 95 35 -3 -5 0 -7 9 -4 8 3
12 12 10 19 -6 15 30 30 46 20 5 -3 8 0 5 7 -6 17 92 81 111 74 8 -3 13 -2 9
3 -8 14 48 63 68 60 6 -1 19 -1 27 0 13 1 13 3 1 10 -12 8 -12 12 -2 25 8 9
19 16 26 16 7 0 18 7 25 15 7 8 17 12 23 8 6 -3 7 -1 3 5 -8 13 61 85 74 77 5
-3 12 0 16 6 4 8 3 9 -4 5 -7 -4 -12 -2 -12 4 0 18 58 72 70 65 6 -3 7 0 4 9
-3 9 0 22 8 30 7 9 19 22 26 31 7 8 17 13 22 10 4 -3 6 5 2 17 -4 17 -2 20 12
15 10 -4 15 -3 11 3 -10 17 6 52 20 46 9 -3 12 0 9 9 -7 17 24 77 36 70 6 -4
7 1 3 11 -4 10 -2 15 3 11 5 -3 10 7 9 21 0 15 5 26 11 25 7 -1 10 5 8 15 -7
25 42 160 49 136 3 -10 4 1 2 26 -3 25 -2 37 3 28 4 -9 8 34 9 95 1 62 4 137
7 167 3 33 2 43 -3 25 -6 -27 -8 -25 -14 25 -3 30 -4 66 -1 80 5 20 4 22 -6
10 -9 -12 -11 -8 -6 20 5 27 3 31 -5 20 -8 -12 -10 -9 -6 12 2 16 0 26 -7 25
-7 -1 -10 12 -9 32 1 26 -1 31 -9 20 -7 -11 -9 -9 -5 8 3 14 0 21 -7 20 -6 -1
-11 10 -11 25 1 14 -4 24 -9 21 -5 -4 -7 1 -3 11 5 11 3 15 -5 10 -8 -5 -9 -2
-5 10 5 11 3 15 -5 10 -7 -5 -9 -2 -5 9 4 10 2 14 -6 12 -11 -4 -28 22 -90
132 -11 18 -23 33 -28 33 -5 0 -9 6 -9 14 0 7 -11 21 -25 30 -14 9 -25 22 -25
29 0 8 -11 24 -25 37 -13 12 -23 27 -22 33 1 6 -3 11 -10 12 -14 0 -28 13 -28
27 0 6 -11 13 -25 15 -25 3 -73 51 -64 64 2 4 -5 5 -15 2 -19 -5 -47 28 -35
40 3 3 -2 3 -13 1 -20 -5 -67 32 -58 46 3 4 -5 6 -17 2 -16 -4 -20 -2 -15 10
4 12 1 14 -14 11 -10 -3 -19 0 -19 6 0 6 -6 11 -14 11 -8 0 -21 6 -28 13 -7 7
-28 19 -46 26 -20 9 -31 19 -28 27 3 9 0 11 -11 7 -11 -4 -14 -2 -9 5 5 8 1
10 -10 5 -10 -4 -15 -2 -11 4 3 5 -4 9 -16 9 -13 -1 -21 4 -19 12 1 8 -2 11
-7 8 -14 -9 -42 4 -35 16 4 6 -1 8 -14 4 -22 -7 -66 10 -58 22 2 4 -8 8 -22 7
-15 0 -26 5 -25 10 1 6 -10 11 -25 10 -17 0 -26 5 -24 13 2 10 -4 11 -19 7
-14 -5 -19 -4 -15 4 4 7 0 10 -11 9 -10 0 -27 0 -38 1 -17 1 -18 3 -5 11 11 8
7 9 -14 4 -22 -5 -27 -4 -21 6 5 9 4 11 -4 6 -6 -4 -25 -4 -43 -1 -23 6 -27 9
-17 17 11 7 9 8 -5 4 -27 -9 -180 25 -164 36 9 6 5 7 -9 3 -12 -3 -60 0 -105
7 -61 9 -76 14 -58 19 14 4 -11 6 -55 5 -44 0 -154 2 -245 5 -91 4 -205 3
-255 -2z m450 -94 c120 -21 271 -73 391 -133 368 -185 633 -528 711 -919 23
-120 23 -356 0 -476 -78 -391 -343 -734 -711 -919 -121 -61 -270 -111 -396
-135 -130 -24 -390 -24 -520 0 -582 107 -1033 556 -1114 1108 -20 135 -20 233
0 368 84 575 561 1028 1174 1117 117 17 340 12 465 -11z"/>
<path d="M2361 3004 c-438 -74 -789 -385 -903 -802 -18 -63 -21 -105 -21 -237
0 -132 3 -174 21 -237 83 -302 284 -547 565 -689 655 -332 1451 3 1639 689 31
111 31 363 0 474 -152 553 -714 900 -1301 802z m413 -194 c110 -46 212 -143
263 -248 35 -73 36 -77 37 -206 1 -140 -2 -152 -57 -265 -36 -72 -126 -170
-208 -223 -30 -20 -71 -52 -92 -70 -35 -31 -38 -38 -44 -102 -5 -51 -12 -75
-29 -95 -21 -25 -28 -26 -126 -29 -56 -1 -110 2 -118 7 -35 23 -25 244 15 321
23 45 90 116 155 163 30 22 57 43 60 47 3 3 21 17 40 30 77 52 105 108 105
212 0 70 -2 79 -31 115 -85 107 -238 113 -335 12 -26 -27 -60 -54 -75 -60 -39
-16 -220 -15 -239 1 -55 46 59 269 173 337 132 80 181 93 327 89 88 -2 110 -6
179 -36z m-174 -1415 c47 -24 70 -66 70 -127 0 -93 -55 -148 -147 -148 -114 0
-186 131 -123 222 13 20 35 43 49 52 33 20 113 21 151 1z"/>
<path d="M578 3139 c12 -4 9 -8 -13 -13 -63 -14 -150 -67 -185 -112 -19 -24
-40 -42 -47 -40 -7 3 -10 -1 -7 -8 7 -19 -26 -92 -36 -76 -4 7 -7 -34 -6 -91
2 -75 7 -113 19 -136 9 -18 17 -37 17 -43 0 -6 13 -25 30 -43 16 -18 30 -35
30 -38 0 -4 11 -14 24 -23 l25 -16 52 100 c55 104 84 144 99 135 6 -3 7 1 4
10 -9 24 33 78 180 230 76 79 85 91 70 102 -9 7 -13 17 -8 24 4 7 3 10 -4 5
-6 -3 -30 0 -54 9 -24 8 -52 15 -63 16 -18 1 -17 2 3 7 13 4 -15 7 -62 7 -47
0 -78 -3 -68 -6z"/>
<path d="M4406 3140 c8 -3 -4 -11 -30 -19 -25 -7 -50 -10 -57 -5 -8 5 -9 3 -4
-6 6 -10 4 -12 -9 -7 -10 4 -15 3 -11 -3 3 -6 -6 -20 -20 -33 -27 -23 -27 -23
-4 -24 31 -3 150 -122 147 -147 -2 -12 4 -20 17 -22 11 -2 28 -13 38 -26 10
-13 29 -36 43 -53 14 -16 23 -38 20 -48 -2 -9 0 -15 4 -12 14 8 42 -27 37 -46
-3 -11 0 -16 8 -13 16 6 88 -133 80 -153 -2 -8 -1 -11 4 -8 5 3 12 1 16 -4 3
-6 15 -7 28 -2 12 5 26 9 32 10 5 1 10 9 10 19 0 24 31 65 44 58 7 -5 8 -1 5
9 -8 19 16 81 26 65 3 -6 6 41 6 104 0 73 -3 113 -9 109 -6 -4 -8 3 -5 15 4
12 2 20 -2 17 -12 -7 -33 33 -26 50 3 9 0 12 -10 8 -7 -3 -14 -1 -14 4 0 17
-68 81 -115 109 -25 14 -43 30 -40 34 3 4 -5 6 -17 3 -19 -4 -20 -3 -8 6 11 8
7 10 -20 5 -20 -3 -30 -2 -23 3 6 4 -25 8 -73 8 -46 0 -77 -2 -68 -5z"/>
<path d="M1 1338 l-1 -1338 2560 0 2560 0 -1 1338 c-1 735 -3 1328 -6 1317
-14 -70 -14 -69 -24 -54 -7 10 -8 5 -3 -15 5 -19 3 -27 -3 -23 -6 4 -14 0 -17
-9 -3 -8 -2 -12 4 -9 19 12 10 -17 -27 -87 -52 -99 -187 -233 -226 -224 -10 2
-14 0 -11 -6 4 -6 1 -14 -6 -18 -8 -5 -13 -40 -15 -101 -1 -65 0 -80 5 -49 5
29 7 -4 7 -95 0 -96 -2 -127 -8 -100 -6 30 -7 23 -3 -28 5 -78 -31 -260 -47
-236 -6 9 -7 4 -3 -15 5 -22 4 -27 -6 -21 -9 5 -11 4 -6 -3 13 -22 -36 -158
-53 -147 -5 3 -12 -2 -15 -11 -3 -8 -2 -12 4 -9 13 8 13 -8 -2 -40 -6 -14 -17
-24 -24 -21 -7 3 -10 -2 -7 -12 4 -15 -59 -125 -90 -157 -7 -7 -19 -23 -27
-35 -42 -65 -218 -250 -237 -250 -9 0 -11 5 -7 13 6 8 3 8 -9 -1 -9 -8 -16
-17 -15 -20 0 -4 0 -12 -1 -18 -1 -13 -142 -120 -233 -177 -93 -59 -196 -108
-183 -87 3 5 0 7 -9 4 -8 -3 -13 -11 -10 -18 6 -16 -49 -41 -71 -32 -9 3 -13
2 -10 -4 8 -13 -33 -33 -56 -27 -10 3 -17 0 -16 -5 3 -15 -111 -60 -155 -62
-20 0 -32 -4 -26 -7 18 -11 -11 -21 -63 -22 -27 0 -44 -4 -38 -8 16 -9 -38
-21 -64 -14 -15 4 -18 3 -9 -3 9 -6 -7 -14 -50 -24 -139 -35 -168 -39 -215
-34 -30 3 -39 3 -23 -2 19 -6 -3 -12 -85 -23 -192 -25 -829 -15 -745 12 16 5
4 7 -35 4 -47 -3 -54 -2 -30 5 25 8 22 9 -18 5 -26 -3 -69 -1 -95 5 -26 5 -65
12 -87 16 -34 5 -37 8 -20 15 16 8 15 8 -7 4 -38 -7 -84 4 -66 17 9 6 6 7 -9
3 -31 -8 -79 5 -61 17 9 7 5 8 -14 4 -17 -4 -65 7 -134 30 -122 40 -147 51
-139 64 3 4 -4 6 -14 3 -23 -6 -64 14 -56 27 4 6 -1 7 -11 3 -13 -5 -15 -3 -9
7 5 9 4 11 -4 6 -19 -12 -64 3 -57 19 3 10 0 12 -11 8 -11 -4 -14 -2 -9 5 5 8
1 10 -10 5 -12 -4 -15 -3 -10 5 4 8 2 10 -8 6 -16 -6 -69 19 -154 73 -60 38
-74 52 -66 65 3 4 -2 5 -11 2 -21 -8 -168 103 -161 121 2 7 -3 19 -12 27 -11
9 -14 10 -8 1 4 -8 2 -13 -7 -13 -13 0 -141 128 -200 201 -15 19 -34 41 -41
49 -36 41 -88 131 -83 144 4 10 1 13 -8 10 -14 -6 -30 29 -20 46 3 5 0 7 -8 4
-17 -6 -42 48 -34 70 4 10 1 13 -7 10 -15 -6 -42 68 -31 86 6 9 4 11 -5 5 -10
-6 -11 -1 -6 21 5 23 4 26 -5 14 -9 -12 -10 -11 -6 8 3 12 2 20 -3 17 -11 -7
-21 39 -14 62 5 14 4 15 -4 4 -9 -12 -12 -10 -16 10 -21 101 -26 140 -22 198
4 50 3 56 -3 26 -6 -28 -8 4 -8 100 0 87 3 125 7 100 5 -27 6 -11 5 49 -2 57
-7 91 -15 96 -7 4 -10 12 -6 18 3 6 -1 8 -11 6 -35 -8 -188 135 -180 167 3 10
2 17 -2 15 -13 -8 -28 9 -55 62 -17 34 -25 61 -20 74 4 15 3 18 -6 13 -10 -6
-11 -1 -6 21 5 20 4 25 -3 15 -10 -15 -10 -16 -24 54 -3 11 -5 -582 -6 -1317z"/>
</g>
</svg>
